<?xml version="1.0" encoding="UTF-8"?>
<svg width="73px" height="39px" viewBox="0 0 73 39" version="1.1" xmlns="http://www.w3.org/2000/svg" xmlns:xlink="http://www.w3.org/1999/xlink">
    <!-- Generator: Sketch 43.2 (39069) - http://www.bohemiancoding.com/sketch -->
    <title>logo</title>
    <desc>Created with Sketch.</desc>
    <defs>
        <path d="M6.404,32.638 L6.404,38.728 L0.23,38.728 L0.23,10.168 L5.27,10.168 L5.69,12.226 L5.858,12.226 C6.670004,11.498 7.586995,10.889 8.609,10.399 C9.631005,9.909 10.68799,9.664 11.78,9.664 C13.04001,9.664 14.17399,9.916 15.182,10.42 C16.19001,10.924 17.044,11.638 17.744,12.562 C18.444,13.486 18.983,14.59899 19.361,15.901 C19.739,17.20301 19.928,18.65199 19.928,20.248 C19.928,22.04001 19.683,23.62899 19.193,25.015 C18.703,26.40101 18.045,27.577 17.219,28.543 C16.393,29.509 15.45501,30.244 14.405,30.748 C13.35499,31.252003 12.27001,31.504 11.15,31.504 C10.254,31.504 9.386004,31.315002 8.546,30.937 C7.705996,30.559 6.922004,30.02 6.194,29.32 L6.404,32.638 Z M6.404,25.12 C6.964003,25.624 7.523997,25.974 8.084,26.17 C8.644003,26.366 9.189997,26.464 9.722,26.464 C10.78601,26.464 11.696,25.981 12.452,25.015 C13.208,24.049 13.586,22.48801 13.586,20.332 C13.586,16.57998 12.38201,14.704 9.974,14.704 C8.769994,14.704 7.580006,15.33399 6.404,16.594 L6.404,25.12 Z M25.58089,7.102 C24.54488,7.102 23.69089,6.801 23.01889,6.199 C22.34689,5.597 22.01089,4.82 22.01089,3.868 C22.01089,2.916 22.34689,2.146 23.01889,1.558 C23.69089,0.97 24.54488,0.676 25.58089,0.676 C26.64489,0.676 27.50589,0.97 28.16389,1.558 C28.82189,2.146 29.15089,2.916 29.15089,3.868 C29.15089,4.82 28.82189,5.597 28.16389,6.199 C27.50589,6.801 26.64489,7.102 25.58089,7.102 Z M22.51489,10.168 L28.68889,10.168 L28.68889,31 L22.51489,31 L22.51489,10.168 Z M32.32578,10.168 L37.36578,10.168 L37.78578,12.814 L37.95378,12.814 C38.84978,11.974 39.82977,11.239 40.89378,10.609 C41.95778,9.979 43.20377,9.664 44.63178,9.664 C46.89979,9.664 48.54477,10.40599 49.56678,11.89 C50.58878,13.37401 51.09978,15.43199 51.09978,18.064 L51.09978,31 L44.92578,31 L44.92578,18.862 C44.92578,17.34999 44.72278,16.314 44.31678,15.754 C43.91078,15.194 43.25978,14.914 42.36378,14.914 C41.57978,14.914 40.90778,15.089 40.34778,15.439 C39.78778,15.789 39.17178,16.286 38.49978,16.93 L38.49978,31 L32.32578,31 L32.32578,10.168 Z M58.81067,20.164 L52.80467,10.168 L59.44067,10.168 L61.28867,13.528 C61.56867,14.116 61.85567,14.711 62.14967,15.313 C62.44367,15.915 62.74467,16.51 63.05267,17.098 L63.22067,17.098 C63.44467,16.51 63.68267,15.915 63.93467,15.313 C64.18667,14.711 64.42467,14.116 64.64867,13.528 L66.07667,10.168 L72.46067,10.168 L66.41267,20.878 L72.83867,31 L66.20267,31 L64.18667,27.556 C63.85067,26.968 63.52167,26.366 63.19967,25.75 C62.87767,25.134 62.54867,24.532 62.21267,23.944 L62.04467,23.944 C61.79267,24.532 61.52667,25.127 61.24667,25.729 C60.96667,26.331 60.70067,26.94 60.44867,27.556 L58.81067,31 L52.42667,31 L58.81067,20.164 Z" id="path-1"></path>
        <linearGradient x1="-3.72967787%" y1="-28.056344%" x2="-3.72967787%" y2="2662.998%" id="linearGradient-3">
            <stop stop-color="#FF016E" offset="0%"></stop>
            <stop stop-color="#FC623B" offset="100%"></stop>
        </linearGradient>
        <path d="M6.404,32.638 L6.404,38.728 L0.23,38.728 L0.23,10.168 L5.27,10.168 L5.69,12.226 L5.858,12.226 C6.670004,11.498 7.586995,10.889 8.609,10.399 C9.631005,9.909 10.68799,9.664 11.78,9.664 C13.04001,9.664 14.17399,9.916 15.182,10.42 C16.19001,10.924 17.044,11.638 17.744,12.562 C18.444,13.486 18.983,14.59899 19.361,15.901 C19.739,17.20301 19.928,18.65199 19.928,20.248 C19.928,22.04001 19.683,23.62899 19.193,25.015 C18.703,26.40101 18.045,27.577 17.219,28.543 C16.393,29.509 15.45501,30.244 14.405,30.748 C13.35499,31.252003 12.27001,31.504 11.15,31.504 C10.254,31.504 9.386004,31.315002 8.546,30.937 C7.705996,30.559 6.922004,30.02 6.194,29.32 L6.404,32.638 Z M6.404,25.12 C6.964003,25.624 7.523997,25.974 8.084,26.17 C8.644003,26.366 9.189997,26.464 9.722,26.464 C10.78601,26.464 11.696,25.981 12.452,25.015 C13.208,24.049 13.586,22.48801 13.586,20.332 C13.586,16.57998 12.38201,14.704 9.974,14.704 C8.769994,14.704 7.580006,15.33399 6.404,16.594 L6.404,25.12 Z M25.58089,7.102 C24.54488,7.102 23.69089,6.801 23.01889,6.199 C22.34689,5.597 22.01089,4.82 22.01089,3.868 C22.01089,2.916 22.34689,2.146 23.01889,1.558 C23.69089,0.97 24.54488,0.676 25.58089,0.676 C26.64489,0.676 27.50589,0.97 28.16389,1.558 C28.82189,2.146 29.15089,2.916 29.15089,3.868 C29.15089,4.82 28.82189,5.597 28.16389,6.199 C27.50589,6.801 26.64489,7.102 25.58089,7.102 Z M22.51489,10.168 L28.68889,10.168 L28.68889,31 L22.51489,31 L22.51489,10.168 Z M32.32578,10.168 L37.36578,10.168 L37.78578,12.814 L37.95378,12.814 C38.84978,11.974 39.82977,11.239 40.89378,10.609 C41.95778,9.979 43.20377,9.664 44.63178,9.664 C46.89979,9.664 48.54477,10.40599 49.56678,11.89 C50.58878,13.37401 51.09978,15.43199 51.09978,18.064 L51.09978,31 L44.92578,31 L44.92578,18.862 C44.92578,17.34999 44.72278,16.314 44.31678,15.754 C43.91078,15.194 43.25978,14.914 42.36378,14.914 C41.57978,14.914 40.90778,15.089 40.34778,15.439 C39.78778,15.789 39.17178,16.286 38.49978,16.93 L38.49978,31 L32.32578,31 L32.32578,10.168 Z M58.81067,20.164 L52.80467,10.168 L59.44067,10.168 L61.28867,13.528 C61.56867,14.116 61.85567,14.711 62.14967,15.313 C62.44367,15.915 62.74467,16.51 63.05267,17.098 L63.22067,17.098 C63.44467,16.51 63.68267,15.915 63.93467,15.313 C64.18667,14.711 64.42467,14.116 64.64867,13.528 L66.07667,10.168 L72.46067,10.168 L66.41267,20.878 L72.83867,31 L66.20267,31 L64.18667,27.556 C63.85067,26.968 63.52167,26.366 63.19967,25.75 C62.87767,25.134 62.54867,24.532 62.21267,23.944 L62.04467,23.944 C61.79267,24.532 61.52667,25.127 61.24667,25.729 C60.96667,26.331 60.70067,26.94 60.44867,27.556 L58.81067,31 L52.42667,31 L58.81067,20.164 Z" id="path-4"></path>
        <linearGradient x1="-3.72967787%" y1="108.59876%" x2="100.100182%" y2="10.1268002%" id="linearGradient-6">
            <stop stop-color="#FF016E" offset="0%"></stop>
            <stop stop-color="#FC623B" offset="100%"></stop>
        </linearGradient>
    </defs>
    <g id="Page-1" stroke="none" stroke-width="1" fill="none" fill-rule="evenodd">
        <g id="logo">
            <g id="Group-3">
                <mask id="mask-2" fill="white">
                    <use xlink:href="#path-1"></use>
                </mask>
                <g id="Clip-2"></g>
                <path d="M6.404,32.638 L6.404,38.728 L0.23,38.728 L0.23,10.168 L5.27,10.168 L5.69,12.226 L5.858,12.226 C6.670004,11.498 7.586995,10.889 8.609,10.399 C9.631005,9.909 10.68799,9.664 11.78,9.664 C13.04001,9.664 14.17399,9.916 15.182,10.42 C16.19001,10.924 17.044,11.638 17.744,12.562 C18.444,13.486 18.983,14.59899 19.361,15.901 C19.739,17.20301 19.928,18.65199 19.928,20.248 C19.928,22.04001 19.683,23.62899 19.193,25.015 C18.703,26.40101 18.045,27.577 17.219,28.543 C16.393,29.509 15.45501,30.244 14.405,30.748 C13.35499,31.252003 12.27001,31.504 11.15,31.504 C10.254,31.504 9.386004,31.315002 8.546,30.937 C7.705996,30.559 6.922004,30.02 6.194,29.32 L6.404,32.638 Z M6.404,25.12 C6.964003,25.624 7.523997,25.974 8.084,26.17 C8.644003,26.366 9.189997,26.464 9.722,26.464 C10.78601,26.464 11.696,25.981 12.452,25.015 C13.208,24.049 13.586,22.48801 13.586,20.332 C13.586,16.57998 12.38201,14.704 9.974,14.704 C8.769994,14.704 7.580006,15.33399 6.404,16.594 L6.404,25.12 Z M25.58089,7.102 C24.54488,7.102 23.69089,6.801 23.01889,6.199 C22.34689,5.597 22.01089,4.82 22.01089,3.868 C22.01089,2.916 22.34689,2.146 23.01889,1.558 C23.69089,0.97 24.54488,0.676 25.58089,0.676 C26.64489,0.676 27.50589,0.97 28.16389,1.558 C28.82189,2.146 29.15089,2.916 29.15089,3.868 C29.15089,4.82 28.82189,5.597 28.16389,6.199 C27.50589,6.801 26.64489,7.102 25.58089,7.102 Z M22.51489,10.168 L28.68889,10.168 L28.68889,31 L22.51489,31 L22.51489,10.168 Z M32.32578,10.168 L37.36578,10.168 L37.78578,12.814 L37.95378,12.814 C38.84978,11.974 39.82977,11.239 40.89378,10.609 C41.95778,9.979 43.20377,9.664 44.63178,9.664 C46.89979,9.664 48.54477,10.40599 49.56678,11.89 C50.58878,13.37401 51.09978,15.43199 51.09978,18.064 L51.09978,31 L44.92578,31 L44.92578,18.862 C44.92578,17.34999 44.72278,16.314 44.31678,15.754 C43.91078,15.194 43.25978,14.914 42.36378,14.914 C41.57978,14.914 40.90778,15.089 40.34778,15.439 C39.78778,15.789 39.17178,16.286 38.49978,16.93 L38.49978,31 L32.32578,31 L32.32578,10.168 Z M58.81067,20.164 L52.80467,10.168 L59.44067,10.168 L61.28867,13.528 C61.56867,14.116 61.85567,14.711 62.14967,15.313 C62.44367,15.915 62.74467,16.51 63.05267,17.098 L63.22067,17.098 C63.44467,16.51 63.68267,15.915 63.93467,15.313 C64.18667,14.711 64.42467,14.116 64.64867,13.528 L66.07667,10.168 L72.46067,10.168 L66.41267,20.878 L72.83867,31 L66.20267,31 L64.18667,27.556 C63.85067,26.968 63.52167,26.366 63.19967,25.75 C62.87767,25.134 62.54867,24.532 62.21267,23.944 L62.04467,23.944 C61.79267,24.532 61.52667,25.127 61.24667,25.729 C60.96667,26.331 60.70067,26.94 60.44867,27.556 L58.81067,31 L52.42667,31 L58.81067,20.164 Z" id="Fill-1" fill="url(#linearGradient-3)" mask="url(#mask-2)"></path>
            </g>
            <g id="Group-6">
                <mask id="mask-5" fill="white">
                    <use xlink:href="#path-4"></use>
                </mask>
                <g id="Clip-5"></g>
                <path d="M6.404,32.638 L6.404,38.728 L0.23,38.728 L0.23,10.168 L5.27,10.168 L5.69,12.226 L5.858,12.226 C6.670004,11.498 7.586995,10.889 8.609,10.399 C9.631005,9.909 10.68799,9.664 11.78,9.664 C13.04001,9.664 14.17399,9.916 15.182,10.42 C16.19001,10.924 17.044,11.638 17.744,12.562 C18.444,13.486 18.983,14.59899 19.361,15.901 C19.739,17.20301 19.928,18.65199 19.928,20.248 C19.928,22.04001 19.683,23.62899 19.193,25.015 C18.703,26.40101 18.045,27.577 17.219,28.543 C16.393,29.509 15.45501,30.244 14.405,30.748 C13.35499,31.252003 12.27001,31.504 11.15,31.504 C10.254,31.504 9.386004,31.315002 8.546,30.937 C7.705996,30.559 6.922004,30.02 6.194,29.32 L6.404,32.638 Z M6.404,25.12 C6.964003,25.624 7.523997,25.974 8.084,26.17 C8.644003,26.366 9.189997,26.464 9.722,26.464 C10.78601,26.464 11.696,25.981 12.452,25.015 C13.208,24.049 13.586,22.48801 13.586,20.332 C13.586,16.57998 12.38201,14.704 9.974,14.704 C8.769994,14.704 7.580006,15.33399 6.404,16.594 L6.404,25.12 Z M25.58089,7.102 C24.54488,7.102 23.69089,6.801 23.01889,6.199 C22.34689,5.597 22.01089,4.82 22.01089,3.868 C22.01089,2.916 22.34689,2.146 23.01889,1.558 C23.69089,0.97 24.54488,0.676 25.58089,0.676 C26.64489,0.676 27.50589,0.97 28.16389,1.558 C28.82189,2.146 29.15089,2.916 29.15089,3.868 C29.15089,4.82 28.82189,5.597 28.16389,6.199 C27.50589,6.801 26.64489,7.102 25.58089,7.102 Z M22.51489,10.168 L28.68889,10.168 L28.68889,31 L22.51489,31 L22.51489,10.168 Z M32.32578,10.168 L37.36578,10.168 L37.78578,12.814 L37.95378,12.814 C38.84978,11.974 39.82977,11.239 40.89378,10.609 C41.95778,9.979 43.20377,9.664 44.63178,9.664 C46.89979,9.664 48.54477,10.40599 49.56678,11.89 C50.58878,13.37401 51.09978,15.43199 51.09978,18.064 L51.09978,31 L44.92578,31 L44.92578,18.862 C44.92578,17.34999 44.72278,16.314 44.31678,15.754 C43.91078,15.194 43.25978,14.914 42.36378,14.914 C41.57978,14.914 40.90778,15.089 40.34778,15.439 C39.78778,15.789 39.17178,16.286 38.49978,16.93 L38.49978,31 L32.32578,31 L32.32578,10.168 Z M58.81067,20.164 L52.80467,10.168 L59.44067,10.168 L61.28867,13.528 C61.56867,14.116 61.85567,14.711 62.14967,15.313 C62.44367,15.915 62.74467,16.51 63.05267,17.098 L63.22067,17.098 C63.44467,16.51 63.68267,15.915 63.93467,15.313 C64.18667,14.711 64.42467,14.116 64.64867,13.528 L66.07667,10.168 L72.46067,10.168 L66.41267,20.878 L72.83867,31 L66.20267,31 L64.18667,27.556 C63.85067,26.968 63.52167,26.366 63.19967,25.75 C62.87767,25.134 62.54867,24.532 62.21267,23.944 L62.04467,23.944 C61.79267,24.532 61.52667,25.127 61.24667,25.729 C60.96667,26.331 60.70067,26.94 60.44867,27.556 L58.81067,31 L52.42667,31 L58.81067,20.164 Z" id="Fill-4" fill="url(#linearGradient-6)" mask="url(#mask-5)"></path>
            </g>
        </g>
    </g>
</svg>