<?xml version="1.0" encoding="UTF-8"?>
<svg width="2208px" height="2208px" viewBox="0 0 2208 2208" version="1.1" xmlns="http://www.w3.org/2000/svg" xmlns:xlink="http://www.w3.org/1999/xlink">
    <!-- Generator: Sketch 45.2 (43514) - http://www.bohemiancoding.com/sketch -->
    <title>Splash</title>
    <desc>Created with Sketch.</desc>
    <defs>
        <path d="M1681.8052,3.76349986e-14 C2000.91696,3.76349986e-14 2207.90837,206.991409 2207.90837,526.103165 L2207.90837,1681.8052 C2207.90837,2000.91696 2000.91696,2207.90837 1681.8052,2207.90837 L526.103165,2207.90837 C206.991409,2207.90837 0,2000.91696 0,1681.8052 L0,526.103165 C0,206.991409 206.991409,3.76349988e-14 526.103165,3.76349988e-14 L1681.8052,3.76349986e-14 Z" id="path-1"></path>
        <rect id="path-3" x="0" y="0" width="2207.90837" height="2207.90837"></rect>
    </defs>
    <g id="Page-1" stroke="none" stroke-width="1" fill="none" fill-rule="evenodd">
        <g id="Splash">
            <g id="Group">
                <mask id="mask-2" fill="white">
                    <use xlink:href="#path-1"></use>
                </mask>
                <g id="App-Icon-Shape"></g>
                <mask id="mask-4" fill="white">
                    <use xlink:href="#path-3"></use>
                </mask>
                <g id="Rectangle"></g>
                <g id="Group-10" opacity="0.22877038" mask="url(#mask-4)" fill="#FCFF8D">
                    <g transform="translate(57.764971, 713.621750)">
                        <path d="M837.271413,1064.49979 L1345.95741,1064.49979 L1345.95741,1064.49979 C1393.50696,1064.49979 1432.05349,1103.04632 1432.05349,1150.59588 L1432.05349,1667.31583 L1432.05349,1667.31583 C1432.05349,1714.86539 1393.50696,1753.41192 1345.95741,1753.41192 L837.271413,1753.41192 L837.271413,1753.41192 C789.721856,1753.41192 751.175325,1714.86539 751.175325,1667.31583 L751.175325,1150.59588 L751.175325,1150.59588 C751.175325,1103.04632 789.721856,1064.49979 837.271413,1064.49979 Z" id="Rectangle-Copy" opacity="0.706125453" style="mix-blend-mode: overlay;"></path>
                        <path d="M1588.44674,759.209286 L2097.13273,759.209286 L2097.13273,759.209286 C2144.68229,759.209286 2183.22882,797.755817 2183.22882,845.305373 L2183.22882,1362.02533 L2183.22882,1362.02533 C2183.22882,1409.57488 2144.68229,1448.12142 2097.13273,1448.12142 L1588.44674,1448.12142 L1588.44674,1448.12142 C1540.89718,1448.12142 1502.35065,1409.57488 1502.35065,1362.02533 L1502.35065,845.305373 L1502.35065,845.305373 C1502.35065,797.755817 1540.89718,759.209286 1588.44674,759.209286 Z" id="Rectangle-Copy-7" opacity="0.615206069" style="mix-blend-mode: overlay;"></path>
                        <path d="M86.0960879,935.956421 L594.782081,935.956421 L594.782081,935.956421 C642.331637,935.956421 680.878169,974.502952 680.878169,1022.05251 L680.878169,1538.77246 L680.878169,1538.77246 C680.878169,1586.32202 642.331637,1624.86855 594.782081,1624.86855 L86.0960879,1624.86855 L86.0960879,1624.86855 C38.5465315,1624.86855 3.42448506e-14,1586.32202 2.84217094e-14,1538.77246 L0,1022.05251 L-1.42108547e-14,1022.05251 C-2.00339959e-14,974.502952 38.5465315,935.956421 86.0960879,935.956421 Z" id="Rectangle-Copy-9" opacity="0.543931159" style="mix-blend-mode: overlay;"></path>
                        <path d="M837.271413,305.290506 L1345.95741,305.290506 L1345.95741,305.290506 C1393.50696,305.290506 1432.05349,343.837038 1432.05349,391.386594 L1432.05349,908.106548 L1432.05349,908.106548 C1432.05349,955.656104 1393.50696,994.202636 1345.95741,994.202636 L837.271413,994.202636 L837.271413,994.202636 C789.721856,994.202636 751.175325,955.656104 751.175325,908.106548 L751.175325,391.386594 L751.175325,391.386594 C751.175325,343.837038 789.721856,305.290506 837.271413,305.290506 Z" id="Rectangle-Copy-6" opacity="0.557178442" style="mix-blend-mode: overlay;"></path>
                        <path d="M1588.44674,1.62675921e-15 L2097.13273,2.75941527e-14 L2097.13273,2.84217094e-14 C2144.68229,1.96869976e-14 2183.22882,38.5465315 2183.22882,86.0960879 L2183.22882,602.816042 L2183.22882,602.816042 C2183.22882,650.365598 2144.68229,688.912129 2097.13273,688.912129 L1588.44674,688.912129 L1588.44674,688.912129 C1540.89718,688.912129 1502.35065,650.365598 1502.35065,602.816042 L1502.35065,86.0960879 L1502.35065,86.0960879 C1502.35065,38.5465315 1540.89718,-5.47614291e-15 1588.44674,-1.42108547e-14 Z" id="Rectangle-Copy-8" opacity="0.516757246" style="mix-blend-mode: overlay;"></path>
                        <path d="M86.0960879,176.747135 L594.782081,176.747135 L594.782081,176.747135 C642.331637,176.747135 680.878169,215.293667 680.878169,262.843223 L680.878169,779.563177 L680.878169,779.563177 C680.878169,827.112733 642.331637,865.659265 594.782081,865.659265 L86.0960879,865.659265 L86.0960879,865.659265 C38.5465315,865.659265 2.00339959e-14,827.112733 1.42108547e-14,779.563177 L0,262.843223 L-1.42108547e-14,262.843223 C-2.00339959e-14,215.293667 38.5465315,176.747135 86.0960879,176.747135 Z" id="Rectangle-Copy-10" opacity="0.646342844" style="mix-blend-mode: overlay;"></path>
                    </g>
                </g>
                <g id="Group-10-Copy" opacity="0.22877038" mask="url(#mask-4)" fill="#FCFF8D">
                    <g transform="translate(57.764971, -808.560193)">
                        <path d="M837.271413,1064.49979 L1345.95741,1064.49979 L1345.95741,1064.49979 C1393.50696,1064.49979 1432.05349,1103.04632 1432.05349,1150.59588 L1432.05349,1667.31583 L1432.05349,1667.31583 C1432.05349,1714.86539 1393.50696,1753.41192 1345.95741,1753.41192 L837.271413,1753.41192 L837.271413,1753.41192 C789.721856,1753.41192 751.175325,1714.86539 751.175325,1667.31583 L751.175325,1150.59588 L751.175325,1150.59588 C751.175325,1103.04632 789.721856,1064.49979 837.271413,1064.49979 Z" id="Rectangle-Copy" opacity="0.706125453" style="mix-blend-mode: overlay;"></path>
                        <path d="M1588.44674,759.209286 L2097.13273,759.209286 L2097.13273,759.209286 C2144.68229,759.209286 2183.22882,797.755817 2183.22882,845.305373 L2183.22882,1362.02533 L2183.22882,1362.02533 C2183.22882,1409.57488 2144.68229,1448.12142 2097.13273,1448.12142 L1588.44674,1448.12142 L1588.44674,1448.12142 C1540.89718,1448.12142 1502.35065,1409.57488 1502.35065,1362.02533 L1502.35065,845.305373 L1502.35065,845.305373 C1502.35065,797.755817 1540.89718,759.209286 1588.44674,759.209286 Z" id="Rectangle-Copy-7" opacity="0.615206069" style="mix-blend-mode: overlay;"></path>
                        <path d="M86.0960879,935.956421 L594.782081,935.956421 L594.782081,935.956421 C642.331637,935.956421 680.878169,974.502952 680.878169,1022.05251 L680.878169,1538.77246 L680.878169,1538.77246 C680.878169,1586.32202 642.331637,1624.86855 594.782081,1624.86855 L86.0960879,1624.86855 L86.0960879,1624.86855 C38.5465315,1624.86855 2.00339959e-14,1586.32202 1.42108547e-14,1538.77246 L0,1022.05251 L0,1022.05251 C-5.8231412e-15,974.502952 38.5465315,935.956421 86.0960879,935.956421 Z" id="Rectangle-Copy-9" opacity="0.543931159" style="mix-blend-mode: overlay;"></path>
                        <path d="M837.271413,305.290506 L1345.95741,305.290506 L1345.95741,305.290506 C1393.50696,305.290506 1432.05349,343.837038 1432.05349,391.386594 L1432.05349,908.106548 L1432.05349,908.106548 C1432.05349,955.656104 1393.50696,994.202636 1345.95741,994.202636 L837.271413,994.202636 L837.271413,994.202636 C789.721856,994.202636 751.175325,955.656104 751.175325,908.106548 L751.175325,391.386594 L751.175325,391.386594 C751.175325,343.837038 789.721856,305.290506 837.271413,305.290506 Z" id="Rectangle-Copy-6" opacity="0.557178442" style="mix-blend-mode: overlay;"></path>
                        <path d="M86.0960879,176.747135 L594.782081,176.747135 L594.782081,176.747135 C642.331637,176.747135 680.878169,215.293667 680.878169,262.843223 L680.878169,779.563177 L680.878169,779.563177 C680.878169,827.112733 642.331637,865.659265 594.782081,865.659265 L86.0960879,865.659265 L86.0960879,865.659265 C38.5465315,865.659265 2.00339959e-14,827.112733 1.42108547e-14,779.563177 L0,262.843223 L0,262.843223 C-5.8231412e-15,215.293667 38.5465315,176.747135 86.0960879,176.747135 Z" id="Rectangle-Copy-10" opacity="0.646342844" style="mix-blend-mode: overlay;"></path>
                    </g>
                </g>
            </g>
        </g>
    </g>
</svg>